<svg xmlns="http://www.w3.org/2000/svg" width="78.84" height="46.883" viewBox="0 0 78.84 46.883">
  <g id="Group_1656" data-name="Group 1656" transform="translate(-122.194 -9.884)">
    <path id="Path_7" data-name="Path 7" d="M105.538,1.453a1.8,1.8,0,0,0-1.063,1.193A10.214,10.214,0,0,0,104.19,5.5V31.221a10.194,10.194,0,0,0,.284,2.852,1.789,1.789,0,0,0,1.09,1.193,9.02,9.02,0,0,0,2.516.414v1.036q-2.853-.155-8.141-.157-5.551,0-8.2.157V35.68a10.344,10.344,0,0,0,2.722-.414,1.858,1.858,0,0,0,1.166-1.193,9.334,9.334,0,0,0,.311-2.852V4.1L83.446,36.77h-.83l-14-33.4V28.214a23.108,23.108,0,0,0,.311,4.486,3.086,3.086,0,0,0,1.35,2.075,8.37,8.37,0,0,0,3.371.907v1.036q-2.021-.155-5.6-.157-2.853,0-4.513.157V35.682a5.5,5.5,0,0,0,2.516-.882,3.234,3.234,0,0,0,1.09-1.97,20.834,20.834,0,0,0,.284-3.994V5.5a10.194,10.194,0,0,0-.284-2.852,1.8,1.8,0,0,0-1.09-1.193,9.019,9.019,0,0,0-2.516-.414V0q1.66.155,4.513.155,4.772,0,8.2-.155L86.714,25.257,96.254.155h3.682q5.289,0,8.141-.155V1.036a8.857,8.857,0,0,0-2.541.414Z" transform="translate(75.809 13.113)" fill="#393636"/>
    <path id="Path_8" data-name="Path 8" d="M78.345,31.5a35.882,35.882,0,0,1-11.868-2.992c-.915-.41-1.808-.863-2.692-1.337a5.224,5.224,0,0,0-2.99-.822,6.64,6.64,0,0,0-2.639,1.161,2.919,2.919,0,0,1-1.762.436A4.084,4.084,0,0,1,52.827,25.2c-.193-.6-1.192-.151-1.431.154l-2.341,3.013-1.03,1.325c-.191.241-.534.815-.872.843-.353.031-.786-.451-.994-.681a11.2,11.2,0,0,1-.862-1.13,18.749,18.749,0,0,1-1.424-2.434c-.163-.333-.313-.674-.455-1.015.081-.2.16-.4.234-.6a22.846,22.846,0,0,0,1.431-7.65,22.568,22.568,0,0,0-1.49-8.493c-.2-.512-1.246-.256-1.431.154a21.537,21.537,0,0,0-1.541,12.441A21.069,21.069,0,0,0,41.9,25.569a11.653,11.653,0,0,1-2.049,3.389,4.516,4.516,0,0,1-2.314,1.54,2.792,2.792,0,0,1-2.23-.615c-1.594-1.258-2.12-3.6-2.486-5.5-.058-.3-.542-.287-.75-.249a.881.881,0,0,0-.727.525,19.764,19.764,0,0,1-5.176,8.552,13.08,13.08,0,0,1,.061-11.747c.16-.313-.142-.494-.419-.515a1.113,1.113,0,0,0-.966.425A33.326,33.326,0,0,1,18.2,27.892a102.608,102.608,0,0,0-.109-14.634q-.118-1.483-.28-2.962c-.061-.569-1.541-.228-1.475.4a101.435,101.435,0,0,1,.31,18.367c-1.528,1.125-3.086,2.208-4.6,3.313C7.63,35.583,2.927,39.316.832,44.563-.117,46.938-.48,49.938.715,52.295a5.055,5.055,0,0,0,2.725,2.49,6.48,6.48,0,0,0,4.566-.164c3.158-1.181,5.3-4.04,6.59-7.063a43.208,43.208,0,0,0,2.583-10.386q.618-3.958.923-7.957a46.494,46.494,0,0,0,5.608-4.788,13.586,13.586,0,0,0,1.472,10.086c.247.41,1.037.067,1.281-.143a20.69,20.69,0,0,0,5.423-7.325,7.549,7.549,0,0,0,1.775,3.195,4.682,4.682,0,0,0,5.969.282,9.352,9.352,0,0,0,2.954-3.451,19.905,19.905,0,0,0,1.655,2.7,3.247,3.247,0,0,0,2.624,1.7c1.457-.064,2.247-1.309,3.058-2.352q.965-1.237,1.927-2.477a5.055,5.055,0,0,0,2.779,2.027,5.361,5.361,0,0,0,2.367.169,6.724,6.724,0,0,0,2.517-1.045,3.018,3.018,0,0,1,1.058-.507,2.509,2.509,0,0,1,1.332.3c.948.43,1.846.974,2.789,1.417a37.22,37.22,0,0,0,6.046,2.226,38.077,38.077,0,0,0,7.052,1.214,1.06,1.06,0,0,0,.966-.425c.163-.318-.14-.492-.42-.515ZM16.18,33.928a69.434,69.434,0,0,1-1.97,10.7c-.854,2.985-2.232,6.215-4.769,8.137a6.108,6.108,0,0,1-3.7,1.422,4.054,4.054,0,0,1-3.127-1.647c-1.5-1.991-1.33-4.909-.63-7.171a17.942,17.942,0,0,1,4.113-6.6,42.469,42.469,0,0,1,6.043-5.237c1.449-1.076,2.939-2.119,4.413-3.182-.1,1.191-.224,2.38-.369,3.569ZM41.9,15.093a20.558,20.558,0,0,1,.869-4.237,22.555,22.555,0,0,1,.018,12.1c-.028.1-.056.2-.086.3a21.223,21.223,0,0,1-.8-8.168Z" transform="translate(122.234 1.637)" fill="#f7eff1"/>
  </g>
</svg>
