<svg xmlns="http://www.w3.org/2000/svg" width="81.001" height="57" viewBox="0 0 81.001 57">
  <g id="Group_1666" data-name="Group 1666" transform="translate(-901.919 -2458.081)">
    <path id="Path_28" data-name="Path 28" d="M35.6,118.061a6.444,6.444,0,0,1-2.483-.468,5.787,5.787,0,0,1-3.258-3.357,7.165,7.165,0,0,1-.45-2.583,7.417,7.417,0,0,1,.45-2.637,5.913,5.913,0,0,1,3.258-3.429A6.235,6.235,0,0,1,35.6,105.1a5.98,5.98,0,0,1,1.791.261,6.112,6.112,0,0,1,1.549.729,6.374,6.374,0,0,1,1.268,1.1l-.324.288a6.174,6.174,0,0,0-1.187-1.044,5.429,5.429,0,0,0-3.1-.936,5.745,5.745,0,0,0-2.3.459,5.435,5.435,0,0,0-1.836,1.287,5.964,5.964,0,0,0-1.206,1.953,6.8,6.8,0,0,0-.431,2.457,6.533,6.533,0,0,0,.431,2.412,5.822,5.822,0,0,0,1.206,1.908,5.342,5.342,0,0,0,1.836,1.251,5.948,5.948,0,0,0,2.3.441,6.225,6.225,0,0,0,1.549-.189,5.714,5.714,0,0,0,1.367-.54,5.47,5.47,0,0,0,1.135-.837l.269.324a5.36,5.36,0,0,1-1.215.882,6.439,6.439,0,0,1-1.458.558,6.7,6.7,0,0,1-1.647.2" transform="translate(895 2377)" fill="#161615"/>
    <path id="Path_29" data-name="Path 29" d="M42.82,117.881v-12.6h.306l5.292,8.424h-.054l5.273-8.424h.306v12.6h-.4v-9.774q0-.63.017-1.269t.036-1.269l.288.09-5.364,8.55h-.269l-5.275-8.424.181-.216q.035.594.045,1.215t.009,1.287v9.81Z" transform="translate(895 2377)" fill="#161615"/>
    <path id="Path_30" data-name="Path 30" d="M61.4,118.061a6.833,6.833,0,0,1-1.944-.261,5.012,5.012,0,0,1-1.566-.765,4.939,4.939,0,0,1-1.17-1.224l.324-.288a4.394,4.394,0,0,0,1.782,1.6,5.765,5.765,0,0,0,2.574.54,4.4,4.4,0,0,0,1.827-.369,3.273,3.273,0,0,0,1.305-1.017,2.423,2.423,0,0,0,.486-1.494,1.954,1.954,0,0,0-.207-.918,2.245,2.245,0,0,0-.585-.7,4.246,4.246,0,0,0-.909-.549,11.244,11.244,0,0,0-1.2-.459q-.667-.216-1.422-.432a10.685,10.685,0,0,1-1.512-.531,4.711,4.711,0,0,1-1.125-.684,2.647,2.647,0,0,1-.7-.9,2.768,2.768,0,0,1-.243-1.2,2.83,2.83,0,0,1,.315-1.314,3.217,3.217,0,0,1,.864-1.053,4.177,4.177,0,0,1,1.295-.693A5.015,5.015,0,0,1,61.2,105.1a6.356,6.356,0,0,1,1.71.207,3.83,3.83,0,0,1,1.278.612,4.709,4.709,0,0,1,.954.963l-.306.27a4.364,4.364,0,0,0-.9-.891,3.775,3.775,0,0,0-1.179-.567,5.545,5.545,0,0,0-1.557-.2,4.484,4.484,0,0,0-1.864.378,3.284,3.284,0,0,0-1.322,1.035,2.461,2.461,0,0,0-.486,1.5,2.328,2.328,0,0,0,.234,1.071,2.509,2.509,0,0,0,.666.81,4.149,4.149,0,0,0,1.044.6,10.71,10.71,0,0,0,1.368.45,19.858,19.858,0,0,1,1.926.576,6.708,6.708,0,0,1,1.44.7,2.9,2.9,0,0,1,.909.927,2.371,2.371,0,0,1,.315,1.233,2.8,2.8,0,0,1-.531,1.674,3.668,3.668,0,0,1-1.449,1.17,4.763,4.763,0,0,1-2.052.432" transform="translate(895 2377)" fill="#161615"/>
    <path id="Path_31" data-name="Path 31" d="M82.6,140.081H12.243a5.329,5.329,0,0,1-5.324-5.324V88.4a5.329,5.329,0,0,1,5.324-5.324H82.6A5.33,5.33,0,0,1,87.92,88.4v46.352a5.33,5.33,0,0,1-5.325,5.324m-70.352-56.5A4.829,4.829,0,0,0,7.419,88.4v46.352a4.829,4.829,0,0,0,4.824,4.824H82.6a4.83,4.83,0,0,0,4.825-4.824V88.4A4.83,4.83,0,0,0,82.6,83.581Z" transform="translate(895 2375)" fill="#161615"/>
    <rect id="Rectangle_681" data-name="Rectangle 681" width="80.5" height="0.5" transform="translate(902.169 2463.155)" fill="#161615"/>
    <rect id="Rectangle_682" data-name="Rectangle 682" width="80.5" height="0.5" transform="translate(902.169 2463.155)" fill="#161615"/>
    <path id="Path_32" data-name="Path 32" d="M82.6,140.081H12.243a5.329,5.329,0,0,1-5.324-5.324V88.4a5.329,5.329,0,0,1,5.324-5.324H82.6A5.33,5.33,0,0,1,87.92,88.4v46.352a5.33,5.33,0,0,1-5.325,5.324m-70.352-56.5A4.829,4.829,0,0,0,7.419,88.4v46.352a4.829,4.829,0,0,0,4.824,4.824H82.6a4.83,4.83,0,0,0,4.825-4.824V88.4A4.83,4.83,0,0,0,82.6,83.581Z" transform="translate(895 2375)" fill="#161615"/>
  </g>
</svg>
