<svg xmlns="http://www.w3.org/2000/svg" width="80" height="56" viewBox="0 0 80 56">
  <g id="Group_14" data-name="Group 14" transform="translate(-0.127)">
    <g id="Rectangle_25" data-name="Rectangle 25" transform="translate(0.127)" fill="none" stroke="#f7eff1" stroke-width="0.5">
      <rect width="80" height="56" rx="5" stroke="none"/>
      <rect x="0.25" y="0.25" width="79.5" height="55.5" rx="4.75" fill="none"/>
    </g>
    <line id="Line_3" data-name="Line 3" x2="79.469" transform="translate(0.158 5.5)" fill="none" stroke="#f7eff1" stroke-width="0.5"/>
    <circle id="Ellipse_12" data-name="Ellipse 12" cx="1" cy="1" r="1" transform="translate(4.127 2)" fill="#fff"/>
    <circle id="Ellipse_13" data-name="Ellipse 13" cx="1" cy="1" r="1" transform="translate(7.127 2)" fill="#fff"/>
    <circle id="Ellipse_14" data-name="Ellipse 14" cx="1" cy="1" r="1" transform="translate(10.127 2)" fill="#fff"/>
    <g id="Rectangle_26" data-name="Rectangle 26" transform="translate(4.127 10)" fill="none" stroke="#f7eff1" stroke-width="0.2">
      <rect width="13" height="40" stroke="none"/>
      <rect x="0.1" y="0.1" width="12.8" height="39.8" fill="none"/>
    </g>
    <g id="Rectangle_27" data-name="Rectangle 27" transform="translate(21.127 10)" fill="none" stroke="#f7eff1" stroke-width="0.2">
      <rect width="54" height="17" stroke="none"/>
      <rect x="0.1" y="0.1" width="53.8" height="16.8" fill="none"/>
    </g>
    <g id="Rectangle_28" data-name="Rectangle 28" transform="translate(21.127 31)" fill="none" stroke="#f7eff1" stroke-width="0.2">
      <rect width="16" height="19" stroke="none"/>
      <rect x="0.1" y="0.1" width="15.8" height="18.8" fill="none"/>
    </g>
    <g id="Rectangle_29" data-name="Rectangle 29" transform="translate(39.127 31)" fill="none" stroke="#f7eff1" stroke-width="0.2">
      <rect width="17" height="19" stroke="none"/>
      <rect x="0.1" y="0.1" width="16.8" height="18.8" fill="none"/>
    </g>
    <g id="Rectangle_30" data-name="Rectangle 30" transform="translate(58.127 31)" fill="none" stroke="#f7eff1" stroke-width="0.2">
      <rect width="17" height="19" stroke="none"/>
      <rect x="0.1" y="0.1" width="16.8" height="18.8" fill="none"/>
    </g>
  </g>
</svg>
