<svg xmlns="http://www.w3.org/2000/svg" width="81.001" height="57" viewBox="0 0 81.001 57">
  <g id="Group_1667" data-name="Group 1667" transform="translate(-995.609 -2458.036)">
    <path id="Path_36" data-name="Path 36" d="M124.126,119.528a9.5,9.5,0,0,1-3.348-3.42,9.6,9.6,0,0,1,.009-9.135,9.552,9.552,0,0,1,3.357-3.429l.252.306a9.727,9.727,0,0,0-3.267,3.366,8.676,8.676,0,0,0-1.089,4.32,8.806,8.806,0,0,0,1.044,4.266,9.714,9.714,0,0,0,3.312,3.42Z" transform="translate(895 2377)" fill="#161615"/>
    <path id="Path_37" data-name="Path 37" d="M125.008,119.528l-.252-.306a9.748,9.748,0,0,0,3.268-3.366,8.7,8.7,0,0,0,1.088-4.32,8.816,8.816,0,0,0-1.043-4.266,9.727,9.727,0,0,0-3.313-3.42l.271-.306a9.5,9.5,0,0,1,3.347,3.42,9.59,9.59,0,0,1-.009,9.135,9.552,9.552,0,0,1-3.357,3.429" transform="translate(895 2377)" fill="#161615"/>
    <path id="Path_38" data-name="Path 38" d="M131.777,109.5h7.848v.432h-7.848Zm0,2.826h7.848v.432h-7.848Z" transform="translate(895 2377)" fill="#161615"/>
    <path id="Path_39" data-name="Path 39" d="M142.018,115.532l-.216-.36,6.229-3.6v.108l-6.229-3.6.216-.36,6.408,3.672v.468Z" transform="translate(895 2377)" fill="#161615"/>
    <path id="Path_40" data-name="Path 40" d="M155.428,119.528a4.609,4.609,0,0,1-1.071-.4,2.575,2.575,0,0,1-.8-.648,2.919,2.919,0,0,1-.5-.936,3.925,3.925,0,0,1-.18-1.242l.036-1.71a3.079,3.079,0,0,0-.558-1.962,1.973,1.973,0,0,0-1.6-.72h-.36v-.468h.36a1.981,1.981,0,0,0,1.612-.711,3.114,3.114,0,0,0,.548-1.971l-.036-1.71a3.187,3.187,0,0,1,.684-2.169,3.4,3.4,0,0,1,1.872-1.053l.108.342a3.712,3.712,0,0,0-1.323.594,2.149,2.149,0,0,0-.72.99,4.54,4.54,0,0,0-.225,1.548l.036,1.71a3.4,3.4,0,0,1-.4,1.737,2.059,2.059,0,0,1-1.215.945v-.054a2.26,2.26,0,0,1,1.224.99,3.37,3.37,0,0,1,.4,1.71l-.036,1.71a4.54,4.54,0,0,0,.225,1.548,2.154,2.154,0,0,0,.72.99,3.712,3.712,0,0,0,1.323.594Z" transform="translate(895 2377)" fill="#161615"/>
    <path id="Path_41" data-name="Path 41" d="M157.552,119.528l-.107-.342a3.72,3.72,0,0,0,1.323-.594,2.168,2.168,0,0,0,.72-.99,4.567,4.567,0,0,0,.224-1.548l-.036-1.71a3.408,3.408,0,0,1,.4-1.737,2.062,2.062,0,0,1,1.215-.945v.054a2.254,2.254,0,0,1-1.223-.99,3.37,3.37,0,0,1-.4-1.71l.036-1.71a4.567,4.567,0,0,0-.224-1.548,2.163,2.163,0,0,0-.72-.99,3.72,3.72,0,0,0-1.323-.594l.107-.342a3.907,3.907,0,0,1,1.071.387,2.676,2.676,0,0,1,.8.657,2.9,2.9,0,0,1,.505.936,3.953,3.953,0,0,1,.18,1.242l-.036,1.71a3.079,3.079,0,0,0,.557,1.962,1.974,1.974,0,0,0,1.6.72h.359v.468h-.359a1.981,1.981,0,0,0-1.612.711,3.108,3.108,0,0,0-.548,1.971l.036,1.71a3.187,3.187,0,0,1-.685,2.169,3.4,3.4,0,0,1-1.872,1.053" transform="translate(895 2377)" fill="#161615"/>
    <path id="Path_42" data-name="Path 42" d="M176.286,140.036H105.933a5.33,5.33,0,0,1-5.324-5.324V88.36a5.33,5.33,0,0,1,5.324-5.324h70.353a5.33,5.33,0,0,1,5.324,5.324v46.352a5.33,5.33,0,0,1-5.324,5.324m-70.353-56.5a4.829,4.829,0,0,0-4.824,4.824v46.352a4.829,4.829,0,0,0,4.824,4.824h70.353a4.829,4.829,0,0,0,4.824-4.824V88.36a4.829,4.829,0,0,0-4.824-4.824Z" transform="translate(895 2375)" fill="#161615"/>
    <rect id="Rectangle_683" data-name="Rectangle 683" width="80.5" height="0.5" transform="translate(995.859 2463.11)" fill="#161615"/>
    <rect id="Rectangle_684" data-name="Rectangle 684" width="80.5" height="0.5" transform="translate(995.859 2463.11)" fill="#161615"/>
    <path id="Path_43" data-name="Path 43" d="M176.286,140.036H105.933a5.33,5.33,0,0,1-5.324-5.324V88.36a5.33,5.33,0,0,1,5.324-5.324h70.353a5.33,5.33,0,0,1,5.324,5.324v46.352a5.33,5.33,0,0,1-5.324,5.324m-70.353-56.5a4.829,4.829,0,0,0-4.824,4.824v46.352a4.829,4.829,0,0,0,4.824,4.824h70.353a4.829,4.829,0,0,0,4.824-4.824V88.36a4.829,4.829,0,0,0-4.824-4.824Z" transform="translate(895 2375)" fill="#161615"/>
    <path id="Path_44" data-name="Path 44" d="M105.077,85.861a.5.5,0,1,1-.5-.5.5.5,0,0,1,.5.5" transform="translate(895 2375)" fill="#161615"/>
    <path id="Path_45" data-name="Path 45" d="M108.021,85.861a.5.5,0,1,1-.5-.5.5.5,0,0,1,.5.5" transform="translate(895 2375)" fill="#161615"/>
    <path id="Path_46" data-name="Path 46" d="M110.965,85.861a.5.5,0,1,1-.5-.5.5.5,0,0,1,.5.5" transform="translate(895 2375)" fill="#161615"/>
  </g>
</svg>
