<svg id="light" xmlns="http://www.w3.org/2000/svg" width="35" height="35" viewBox="0 0 35 35">
  <g id="Ellipse_23" data-name="Ellipse 23" fill="#f7eff1" stroke="#f7eff1" stroke-width="0.5">
    <circle cx="17.5" cy="17.5" r="17.5" stroke="none"/>
    <circle cx="17.5" cy="17.5" r="17.25" fill="none"/>
  </g>
  <g id="Subtraction_3" data-name="Subtraction 3" transform="translate(2925 -3)" fill="#393636">
    <path d="M -2907.49951171875 37.74980163574219 C -2912.10693359375 37.74980163574219 -2916.43896484375 35.95557022094727 -2919.697509765625 32.6976318359375 C -2922.95556640625 29.43963050842285 -2924.75 25.10783004760742 -2924.75 20.50020027160645 C -2924.75 15.8925199508667 -2922.95556640625 11.56054973602295 -2919.697509765625 8.302300453186035 C -2916.43896484375 5.044090270996094 -2912.10693359375 3.24970006942749 -2907.49951171875 3.24970006942749 C -2905.29248046875 3.24970006942749 -2903.150634765625 3.658640384674072 -2901.12451171875 4.466056346893311 C -2907.29443359375 7.40252161026001 -2911.249755859375 13.63376903533936 -2911.249755859375 20.50020027160645 C -2911.249755859375 27.36643600463867 -2907.29443359375 33.59737014770508 -2901.12451171875 36.5335807800293 C -2903.150634765625 37.34091949462891 -2905.29248046875 37.74980163574219 -2907.49951171875 37.74980163574219 Z" stroke="none"/>
    <path d="M -2907.49951171875 37.49980163574219 C -2905.5166015625 37.49980163574219 -2903.587158203125 37.16490936279297 -2901.7490234375 36.50303649902344 C -2907.709228515625 33.42970275878906 -2911.499755859375 27.26955795288086 -2911.499755859375 20.50020027160645 C -2911.499755859375 13.73065376281738 -2907.709228515625 7.570174217224121 -2901.748779296875 4.496590137481689 C -2903.587158203125 3.834560394287109 -2905.516357421875 3.49970006942749 -2907.49951171875 3.49970006942749 C -2912.040283203125 3.49970006942749 -2916.3095703125 5.268080234527588 -2919.520751953125 8.479080200195312 C -2922.731689453125 11.690110206604 -2924.5 15.95929050445557 -2924.5 20.50020027160645 C -2924.5 25.04104995727539 -2922.731689453125 29.3100700378418 -2919.520751953125 32.52083969116211 C -2916.3095703125 35.73157119750977 -2912.040283203125 37.49980163574219 -2907.49951171875 37.49980163574219 M -2907.49951171875 37.99980163574219 C -2912.173828125 37.99980163574219 -2916.568603515625 36.17956924438477 -2919.874267578125 32.87442016601562 C -2923.1796875 29.56915092468262 -2925 25.174560546875 -2925 20.50020027160645 C -2925 15.82579040527344 -2923.1796875 11.43103981018066 -2919.874267578125 8.125530242919922 C -2916.568603515625 4.820090293884277 -2912.173828125 2.99970006942749 -2907.49951171875 2.99970006942749 C -2905.06640625 2.99970006942749 -2902.71142578125 3.489640235900879 -2900.5 4.455920219421387 C -2906.87841796875 7.242830276489258 -2910.999755859375 13.53985977172852 -2910.999755859375 20.50020027160645 C -2910.999755859375 27.45961952209473 -2906.87841796875 33.7570686340332 -2900.5 36.54372024536133 C -2902.712890625 37.51052093505859 -2905.06787109375 37.99980163574219 -2907.49951171875 37.99980163574219 Z" stroke="none" fill="#f7eff1"/>
  </g>
</svg>
