<svg xmlns="http://www.w3.org/2000/svg" width="81.001" height="57" viewBox="0 0 81.001 57">
  <g id="Group_1665" data-name="Group 1665" transform="translate(-995.955 -2385.65)">
    <path id="Path_20" data-name="Path 20" d="M121.962,47.151a4.6,4.6,0,0,1-1.072-.4,2.56,2.56,0,0,1-.8-.648,2.9,2.9,0,0,1-.5-.936,3.925,3.925,0,0,1-.18-1.242l.036-1.71a3.073,3.073,0,0,0-.558-1.962,1.971,1.971,0,0,0-1.6-.72h-.36v-.468h.36a1.983,1.983,0,0,0,1.612-.711,3.12,3.12,0,0,0,.547-1.971l-.036-1.71a3.183,3.183,0,0,1,.685-2.169,3.4,3.4,0,0,1,1.872-1.053l.107.342a3.72,3.72,0,0,0-1.323.594,2.149,2.149,0,0,0-.72.99,4.539,4.539,0,0,0-.225,1.548l.037,1.71a3.4,3.4,0,0,1-.406,1.737,2.059,2.059,0,0,1-1.215.945v-.054a2.256,2.256,0,0,1,1.224.99,3.37,3.37,0,0,1,.4,1.71l-.037,1.71a4.539,4.539,0,0,0,.225,1.548,2.154,2.154,0,0,0,.72.99,3.72,3.72,0,0,0,1.323.594Z" transform="translate(895 2377)" fill="#161615"/>
    <path id="Path_21" data-name="Path 21" d="M128.694,43.983a5.8,5.8,0,0,1-2.493-.5,3.817,3.817,0,0,1-2.276-3.654,3.845,3.845,0,0,1,.6-2.079,4.216,4.216,0,0,1,1.791-1.539l.216.324a3.668,3.668,0,0,0-1.6,1.35,3.566,3.566,0,0,0-.027,3.9,3.794,3.794,0,0,0,1.567,1.332,5.261,5.261,0,0,0,2.294.477,4.972,4.972,0,0,0,2.007-.4,4.615,4.615,0,0,0,1.593-1.152,6.14,6.14,0,0,0,1.116-1.809,9.123,9.123,0,0,0,.594-2.349h.4a10.086,10.086,0,0,1-.442,2.025,7.123,7.123,0,0,1-.809,1.692,5.464,5.464,0,0,1-1.17,1.278,5.125,5.125,0,0,1-1.513.819,5.64,5.64,0,0,1-1.845.288m4.05-.18-.882-.954-.234-.234-4.05-4.374q-.7-.756-1.134-1.278a8.721,8.721,0,0,1-.683-.927,2.6,2.6,0,0,1-.343-.8,4.079,4.079,0,0,1-.09-.9,3.106,3.106,0,0,1,.441-1.656A3.026,3.026,0,0,1,127,31.554a3.98,3.98,0,0,1,1.837-.405,3.8,3.8,0,0,1,1.448.261,3.063,3.063,0,0,1,1.1.756,4.121,4.121,0,0,1,.764,1.233l-.342.2a3.669,3.669,0,0,0-1.188-1.566,3.06,3.06,0,0,0-1.781-.486,3.531,3.531,0,0,0-1.648.36,2.6,2.6,0,0,0-1.449,2.394,3.459,3.459,0,0,0,.081.792,2.7,2.7,0,0,0,.279.693,5.109,5.109,0,0,0,.567.783q.369.432.945,1.062l4.374,4.77.126.144,1.152,1.26Z" transform="translate(895 2377)" fill="#161615"/>
    <rect id="Rectangle_677" data-name="Rectangle 677" width="10.512" height="0.414" transform="translate(1030.839 2422.279)" fill="#161615"/>
    <rect id="Rectangle_678" data-name="Rectangle 678" width="10.512" height="0.414" transform="translate(1043.368 2422.279)" fill="#161615"/>
    <path id="Path_22" data-name="Path 22" d="M160.95,47.151l-.107-.342a3.72,3.72,0,0,0,1.323-.594,2.168,2.168,0,0,0,.72-.99,4.566,4.566,0,0,0,.224-1.548l-.036-1.71a3.408,3.408,0,0,1,.4-1.737,2.062,2.062,0,0,1,1.215-.945v.054a2.254,2.254,0,0,1-1.223-.99,3.37,3.37,0,0,1-.4-1.71l.036-1.71a4.566,4.566,0,0,0-.224-1.548,2.163,2.163,0,0,0-.72-.99,3.72,3.72,0,0,0-1.323-.594l.107-.342a3.907,3.907,0,0,1,1.071.387,2.677,2.677,0,0,1,.8.657,2.9,2.9,0,0,1,.5.936,3.953,3.953,0,0,1,.18,1.242l-.036,1.71a3.079,3.079,0,0,0,.557,1.962,1.974,1.974,0,0,0,1.6.72h.359v.468h-.359a1.981,1.981,0,0,0-1.612.711,3.108,3.108,0,0,0-.548,1.971l.036,1.71a3.188,3.188,0,0,1-.685,2.169,3.4,3.4,0,0,1-1.872,1.053" transform="translate(895 2377)" fill="#161615"/>
    <path id="Path_23" data-name="Path 23" d="M176.632,67.65H106.279a5.33,5.33,0,0,1-5.324-5.324V15.974a5.33,5.33,0,0,1,5.324-5.324h70.353a5.33,5.33,0,0,1,5.324,5.324V62.326a5.33,5.33,0,0,1-5.324,5.324m-70.353-56.5a4.829,4.829,0,0,0-4.824,4.824V62.326a4.829,4.829,0,0,0,4.824,4.824h70.353a4.829,4.829,0,0,0,4.824-4.824V15.974a4.829,4.829,0,0,0-4.824-4.824Z" transform="translate(895 2375)" fill="#161615"/>
    <rect id="Rectangle_679" data-name="Rectangle 679" width="80.5" height="0.5" transform="translate(996.206 2390.724)" fill="#161615"/>
    <rect id="Rectangle_680" data-name="Rectangle 680" width="80.5" height="0.5" transform="translate(996.206 2390.724)" fill="#161615"/>
    <path id="Path_24" data-name="Path 24" d="M176.632,67.65H106.279a5.33,5.33,0,0,1-5.324-5.324V15.974a5.33,5.33,0,0,1,5.324-5.324h70.353a5.33,5.33,0,0,1,5.324,5.324V62.326a5.33,5.33,0,0,1-5.324,5.324m-70.353-56.5a4.829,4.829,0,0,0-4.824,4.824V62.326a4.829,4.829,0,0,0,4.824,4.824h70.353a4.829,4.829,0,0,0,4.824-4.824V15.974a4.829,4.829,0,0,0-4.824-4.824Z" transform="translate(895 2375)" fill="#161615"/>
    <path id="Path_25" data-name="Path 25" d="M105.423,13.475a.5.5,0,1,1-.5-.5.5.5,0,0,1,.5.5" transform="translate(895 2375)" fill="#161615"/>
    <path id="Path_26" data-name="Path 26" d="M108.367,13.475a.5.5,0,1,1-.5-.5.5.5,0,0,1,.5.5" transform="translate(895 2375)" fill="#161615"/>
    <path id="Path_27" data-name="Path 27" d="M111.312,13.475a.5.5,0,1,1-.5-.5.5.5,0,0,1,.5.5" transform="translate(895 2375)" fill="#161615"/>
  </g>
</svg>
