<svg xmlns="http://www.w3.org/2000/svg" width="35" height="35" viewBox="0 0 35 35">
  <g id="Group_1657" data-name="Group 1657" transform="translate(-1354 -3118)">
    <circle id="Ellipse_32" data-name="Ellipse 32" cx="17.5" cy="17.5" r="17.5" transform="translate(1354 3118)" fill="#f7eff1"/>
    <path id="Subtraction_5" data-name="Subtraction 5" d="M-13735.5,2304a16.4,16.4,0,0,1-11.671-4.832A16.394,16.394,0,0,1-13752,2287.5a16.4,16.4,0,0,1,4.832-11.668A16.4,16.4,0,0,1-13735.5,2271a16.407,16.407,0,0,1,6.141,1.182,16.5,16.5,0,0,0-7.456,5.971,16.405,16.405,0,0,0-2.9,9.349,16.4,16.4,0,0,0,2.9,9.348,16.493,16.493,0,0,0,7.456,5.969A16.4,16.4,0,0,1-13735.5,2304Z" transform="translate(15107 848.002)" fill="#393636"/>
  </g>
</svg>
